<svg id="Layer_2" data-name="Layer 2" xmlns="http://www.w3.org/2000/svg" width="232.09" height="57.124" viewBox="0 0 232.09 57.124">
  <g id="Layer_1" data-name="Layer 1">
    <path id="Path_1" data-name="Path 1" d="M561.588,141.693a4.841,4.841,0,0,1,.111,1.38h.224a5.461,5.461,0,0,1,.131-1.362l2.607-7.171h.932l2.607,7.171a4.177,4.177,0,0,1,.131,1.362h.242a4.839,4.839,0,0,1,.111-1.38l2.533-7.153h1.063l-3.24,9.315h-1.212L565.369,137a4.035,4.035,0,0,1-.113-1.341h-.242A4.564,4.564,0,0,1,564.9,137l-2.476,6.857h-1.194L558,134.54h1.063Z" transform="translate(-414.379 -99.911)" fill="#fff"/>
    <path id="Path_2" data-name="Path 2" d="M618.18,138.31c0-2.777,1.846-4.89,4.435-4.89a4.37,4.37,0,0,1,4.3,4.674v.772l-7.86-.018a3.647,3.647,0,0,0,3.838,3.426,2.883,2.883,0,0,0,2.906-1.936h.914a3.971,3.971,0,0,1-3.763,2.96C619.858,143.319,618.18,141.085,618.18,138.31Zm7.75-.6a3.187,3.187,0,0,0-3.315-3.222,3.475,3.475,0,0,0-3.539,3.222Z" transform="translate(-459.069 -99.08)" fill="#fff"/>
    <path id="Path_3" data-name="Path 3" d="M683.667,118.26h.97v13.505h-.97v-.672a5.839,5.839,0,0,1,.409-1.768l-.221-.075a4.623,4.623,0,0,1-.772,1.658,3.968,3.968,0,0,1-2.945,1.135c-2.811,0-4.563-2.085-4.6-4.89s1.771-5.011,4.6-5.011a3.877,3.877,0,0,1,2.981,1.194,4.847,4.847,0,0,1,.708,1.694l.224-.075a6.686,6.686,0,0,1-.391-1.789Zm.131,8.9c0-2.216-1.266-4.059-3.745-4.059s-3.519,1.843-3.519,4.059,1.042,3.912,3.519,3.912S683.8,129.379,683.8,127.163Z" transform="translate(-501.664 -87.822)" fill="#fff"/>
    <path id="Path_4" data-name="Path 4" d="M719,138.31c0-2.777,1.846-4.89,4.432-4.89a4.371,4.371,0,0,1,4.3,4.674v.772l-7.861-.018a3.647,3.647,0,0,0,3.838,3.426,2.883,2.883,0,0,0,2.906-1.936h.911a3.968,3.968,0,0,1-3.76,2.96C720.673,143.319,719,141.085,719,138.31Zm7.75-.6a3.188,3.188,0,0,0-3.318-3.222,3.473,3.473,0,0,0-3.539,3.222Z" transform="translate(-533.939 -99.08)" fill="#fff"/>
    <path id="Path_5" data-name="Path 5" d="M764.65,118.26h.988v11.549c0,.744.185,1.006.932,1.006h1.377l.021.95h-.988c-1.768,0-2.329-.561-2.329-2.255Z" transform="translate(-567.84 -87.822)" fill="#fff"/>
    <path id="Path_6" data-name="Path 6" d="M782.39,120.07h1.153v1.21H782.39Zm.111,3.724h.986v9.315H782.5Z" transform="translate(-581.014 -89.166)" fill="#fff"/>
    <path id="Path_7" data-name="Path 7" d="M800.662,141.935a2.357,2.357,0,0,1,.129,1.03h.242a2.314,2.314,0,0,1,.131-1.03l3.6-7.395h.911l-4.1,9.315h-1.248l-4.172-9.315h.9Z" transform="translate(-591.239 -99.911)" fill="#fff"/>
    <path id="Path_8" data-name="Path 8" d="M839.56,138.31c0-2.777,1.843-4.89,4.432-4.89a4.371,4.371,0,0,1,4.3,4.674v.772l-7.85,0a3.646,3.646,0,0,0,3.835,3.426,2.881,2.881,0,0,0,2.906-1.936h.914a3.972,3.972,0,0,1-3.763,2.96C841.236,143.319,839.56,141.085,839.56,138.31Zm7.747-.6a3.187,3.187,0,0,0-3.315-3.222,3.482,3.482,0,0,0-3.547,3.222Z" transform="translate(-623.469 -99.08)" fill="#fff"/>
    <path id="Path_9" data-name="Path 9" d="M887.477,133.46v.95c-2.059,0-3.966.633-3.966,3.222v5.421h-.97v-9.315h.97v.875a4.367,4.367,0,0,1-.281,1.156l.224.075a4.811,4.811,0,0,1,.373-1.156C884.589,133.663,885.279,133.46,887.477,133.46Z" transform="translate(-655.387 -99.109)" fill="#fff"/>
    <path id="Path_10" data-name="Path 10" d="M294.16,17.81V28.16h-5.3V3.43h9.891c5.23,0,9.575,1.13,9.575,7.065s-4.275,7.348-9.927,7.348C297.446,17.844,295.961,17.844,294.16,17.81Zm3.6-4.347c2.831,0,5.441-.175,5.441-2.968,0-2.649-2.4-2.649-5.441-2.649h-3.6v5.616Z" transform="translate(-214.511 -2.547)" fill="#fff"/>
    <path id="Path_11" data-name="Path 11" d="M383.936,28.82c6.324,0,10.388,3.861,10.388,9.364s-4.064,9.4-10.388,9.4-10.386-3.567-10.386-9.4S377.612,28.82,383.936,28.82Zm0,13.992c3.745,0,5.088-2.085,5.088-4.633s-1.343-4.592-5.088-4.592-5.086,2.059-5.086,4.592S380.157,42.812,383.936,42.812Z" transform="translate(-277.403 -21.402)" fill="#fff"/>
    <path id="Path_12" data-name="Path 12" d="M472.6,47.581c-6.782,0-9.008-4.1-9.008-6.924h4.98c0,.741,1.238,2.3,4.664,2.3,2.574,0,3.145-1.03,3.145-1.624,0-2.862-12.684-1.138-12.684-7.243,0-2.757,2.51-5.266,8.514-5.266,7.032,0,8.867,3.6,8.867,5.83H476.1c0-1.03-1.413-1.907-4.239-1.907-1.624,0-3.215.353-3.215,1.271,0,2.154,12.789-.106,12.789,7.032C481.432,44.33,478.675,47.581,472.6,47.581Z" transform="translate(-344.268 -21.402)" fill="#fff"/>
    <path id="Path_13" data-name="Path 13" d="M546.871,14.737H543.34V10.5h3.531V3.43h4.947V10.5h4.592v4.242h-4.592v6.924c0,1.483.672,1.907,2.332,1.907h2.085V28.16h-4.769c-3.64,0-4.595-3.567-4.595-6.5Z" transform="translate(-403.492 -2.547)" fill="#fff"/>
    <path id="Path_14" data-name="Path 14" d="M613.837,17.81V28.16h-5.3V3.43h9.9c5.227,0,9.575,1.13,9.575,7.065s-4.283,7.348-9.935,7.348C617.124,17.844,615.639,17.844,613.837,17.81Zm3.6-4.347c2.831,0,5.441-.175,5.441-2.968,0-2.649-2.4-2.649-5.441-2.649h-3.6v5.616Z" transform="translate(-451.91 -2.547)" fill="#fff"/>
    <path id="Path_15" data-name="Path 15" d="M695,0h4.98V19.113c0,1.483.672,1.907,2.332,1.907h2.059v4.592h-2.8c-4.169,0-6.571-1.624-6.571-4.273Z" transform="translate(-516.117)" fill="#fff"/>
    <path id="Path_16" data-name="Path 16" d="M754.994,49.075c-3.57,0-6.993-2.085-6.993-6.067V30.88h4.947v8.975c0,3.673,1.694,4.911,4.061,4.911,2.574,0,4.239-1.521,4.239-4.911V30.88h4.947V48.544h-4.949v-.6a11.394,11.394,0,0,1,1.06-3.145l-.813-.317c-.353.955-.6,2.332-1.341,3.037C758.772,48.864,757.467,49.075,754.994,49.075Z" transform="translate(-555.475 -22.932)" fill="#fff"/>
    <path id="Path_17" data-name="Path 17" d="M841.409,47.581c-6.782,0-9.009-4.1-9.009-6.924h4.983c0,.741,1.235,2.3,4.661,2.3,2.574,0,3.145-1.03,3.145-1.624,0-2.862-12.684-1.132-12.684-7.243,0-2.757,2.51-5.266,8.514-5.266,7.032,0,8.87,3.6,8.87,5.83h-4.98c0-1.03-1.413-1.907-4.239-1.907-1.627,0-3.225.353-3.225,1.271,0,2.154,12.789-.106,12.789,7.032C850.242,44.33,847.483,47.581,841.409,47.581Z" transform="translate(-618.152 -21.402)" fill="#fff"/>
    <path id="Path_18" data-name="Path 18" d="M50,3.24V16.367H89.895v17.06H81.576V46.648h21.461V3.24Z" transform="translate(-37.131 -2.406)" fill="#fff"/>
    <path id="Path_19" data-name="Path 19" d="M38.888,88.3v13.222h-12.9v12.9H12.9v-12.9H0V88.3H12.9V77.16H25.991V88.3Z" transform="translate(0 -57.3)" fill="#fff"/>
  </g>
</svg>
